<svg width="146" height="167" viewBox="0 0 146 167" fill="none" xmlns="http://www.w3.org/2000/svg">
<path d="M53.9589 37.57C53.4505 38.154 52.6824 39.2623 52.0256 40.6881C50.4443 40.1625 49.0845 40.0894 48.3391 40.1767C49.3035 41.0162 50.387 41.6467 51.4546 42.1195C51.0766 43.2241 50.8036 44.4476 50.7649 45.7257C51.3353 45.2378 52.2059 44.1904 52.894 42.6727C54.3862 43.1586 55.721 43.3473 56.4948 43.3707C55.4906 42.4281 54.44 41.7443 53.4287 41.2565C53.7573 40.1828 53.9689 38.9472 53.9589 37.57Z" fill="url(#paint0_linear_1_2158)"/>
<path d="M48.1209 24.3298C47.7824 24.7187 47.2708 25.4569 46.8335 26.4066C45.781 26.0568 44.8764 26.0065 44.3801 26.0646C45.0221 26.6234 45.743 27.0434 46.4536 27.358C46.202 28.0933 46.0207 28.9077 45.995 29.7584C46.3746 29.4336 46.952 28.7354 47.41 27.7252C48.4041 28.0492 49.2934 28.175 49.8088 28.1906C49.14 27.5628 48.4394 27.1091 47.7659 26.7843C47.9848 26.0694 48.1276 25.247 48.1209 24.3298Z" fill="url(#paint1_linear_1_2158)"/>
<path d="M34.7168 9.08976C34.2085 9.67366 33.4406 10.7816 32.7839 12.207C31.2026 11.6814 29.8425 11.6092 29.097 11.6965C30.0615 12.536 31.145 13.1665 32.2125 13.6392C31.8346 14.7439 31.5616 15.9674 31.5229 17.2454C32.0932 16.7576 32.9638 15.7102 33.6519 14.1924C35.1442 14.6784 36.4789 14.8671 37.2527 14.8905C36.2485 13.9479 35.1979 13.2641 34.1866 12.7762C34.5152 11.7025 34.7268 10.467 34.7168 9.08976Z" fill="url(#paint2_linear_1_2158)"/>
<path d="M33.402 39.5859C32.6541 40.445 31.5234 42.0747 30.5572 44.172C28.2309 43.3989 26.23 43.2922 25.1335 43.4207C26.5511 44.6548 28.1416 45.5868 29.7109 46.2821C29.1556 47.9062 28.7596 49.7066 28.7027 51.5853C29.5417 50.8677 30.8222 49.3264 31.8346 47.0938C34.0302 47.8089 35.9943 48.0855 37.1328 48.12C35.6551 46.7329 34.1083 45.7281 32.6201 45.0103C33.1038 43.4304 33.4167 41.6126 33.402 39.5859Z" fill="url(#paint3_linear_1_2158)"/>
<circle cx="36.3693" cy="29.816" r="0.846528" transform="rotate(21.3865 36.3693 29.816)" fill="#2F235A"/>
<circle cx="57.3295" cy="19.1721" r="0.846528" transform="rotate(21.3865 57.3295 19.1721)" fill="#FE9076"/>
<circle cx="17.0945" cy="23.7964" r="0.846528" transform="rotate(21.3865 17.0945 23.7964)" fill="#FFA400"/>
<circle cx="35.2724" cy="57.8817" r="0.846528" transform="rotate(21.3865 35.2724 57.8817)" fill="#23BB86"/>
<path d="M56.6866 15.1261C55.863 11.9806 52.8904 4.78678 47.5884 1.17525" stroke="#FE9076" stroke-width="0.736823" stroke-linecap="round"/>
<path d="M14.5961 20.3813C12.5468 17.8569 6.86817 12.5333 0.54788 11.4342" stroke="#FFA400" stroke-width="0.736823" stroke-linecap="round"/>
<path d="M31.6704 59.1119C29.8543 59.7743 25.2825 61.8847 21.5242 65.0281" stroke="#23BB86" stroke-width="0.736823" stroke-linecap="round"/>
<path d="M92.0411 37.57C92.5495 38.154 93.3176 39.2623 93.9744 40.6881C95.5557 40.1625 96.9155 40.0894 97.6609 40.1767C96.6965 41.0162 95.613 41.6467 94.5454 42.1195C94.9234 43.2241 95.1964 44.4476 95.2351 45.7257C94.6647 45.2378 93.7941 44.1904 93.106 42.6727C91.6138 43.1586 90.279 43.3473 89.5052 43.3707C90.5094 42.4281 91.56 41.7443 92.5713 41.2565C92.2427 40.1828 92.0311 38.9472 92.0411 37.57Z" fill="url(#paint4_linear_1_2158)"/>
<path d="M97.8791 24.3298C98.2176 24.7187 98.7292 25.4569 99.1665 26.4066C100.219 26.0568 101.124 26.0065 101.62 26.0646C100.978 26.6234 100.257 27.0434 99.5464 27.358C99.798 28.0933 99.9793 28.9077 100.005 29.7584C99.6254 29.4336 99.048 28.7354 98.59 27.7252C97.5959 28.0492 96.7066 28.175 96.1912 28.1906C96.86 27.5628 97.5606 27.1091 98.2341 26.7843C98.0152 26.0694 97.8724 25.247 97.8791 24.3298Z" fill="url(#paint5_linear_1_2158)"/>
<path d="M111.283 9.08976C111.791 9.67366 112.559 10.7816 113.216 12.207C114.797 11.6814 116.158 11.6092 116.903 11.6965C115.939 12.536 114.855 13.1665 113.787 13.6392C114.165 14.7439 114.438 15.9674 114.477 17.2454C113.907 16.7576 113.036 15.7102 112.348 14.1924C110.856 14.6784 109.521 14.8671 108.747 14.8905C109.751 13.9479 110.802 13.2641 111.813 12.7762C111.485 11.7025 111.273 10.467 111.283 9.08976Z" fill="url(#paint6_linear_1_2158)"/>
<path d="M112.598 39.5859C113.346 40.445 114.477 42.0747 115.443 44.172C117.769 43.3989 119.77 43.2922 120.867 43.4207C119.449 44.6548 117.858 45.5868 116.289 46.2821C116.844 47.9062 117.24 49.7066 117.297 51.5853C116.458 50.8677 115.178 49.3264 114.165 47.0938C111.97 47.8089 110.006 48.0855 108.867 48.12C110.345 46.7329 111.892 45.7281 113.38 45.0103C112.896 43.4304 112.583 41.6126 112.598 39.5859Z" fill="url(#paint7_linear_1_2158)"/>
<circle cx="0.846528" cy="0.846528" r="0.846528" transform="matrix(-0.931142 0.364658 0.364658 0.931142 110.11 28.7191)" fill="#2F235A"/>
<circle cx="0.846528" cy="0.846528" r="0.846528" transform="matrix(-0.931142 0.364658 0.364658 0.931142 89.15 18.0752)" fill="#FE9076"/>
<circle cx="0.846528" cy="0.846528" r="0.846528" transform="matrix(-0.931142 0.364658 0.364658 0.931142 129.385 22.6995)" fill="#FFA400"/>
<circle cx="0.846528" cy="0.846528" r="0.846528" transform="matrix(-0.931142 0.364658 0.364658 0.931142 111.207 56.7848)" fill="#23BB86"/>
<path d="M89.3134 15.1261C90.137 11.9806 93.1096 4.78678 98.4116 1.17525" stroke="#FE9076" stroke-width="0.736823" stroke-linecap="round"/>
<path d="M131.404 20.3813C133.453 17.8569 139.132 12.5333 145.452 11.4342" stroke="#FFA400" stroke-width="0.736823" stroke-linecap="round"/>
<path d="M114.33 59.1119C116.146 59.7743 120.717 61.8847 124.476 65.0281" stroke="#23BB86" stroke-width="0.736823" stroke-linecap="round"/>
<rect x="26.8154" y="104.439" width="89.8505" height="62.1103" fill="url(#paint8_linear_1_2158)"/>
<mask id="mask0_1_2158" style="mask-type:alpha" maskUnits="userSpaceOnUse" x="26" y="104" width="91" height="63">
<rect x="26.8154" y="104.439" width="89.8505" height="62.1103" fill="#C4C4C4"/>
</mask>
<g mask="url(#mask0_1_2158)">
<path d="M31.0669 102.858L92.2489 102.858L78.4203 126.869L17.2383 126.869L31.0669 102.858Z" fill="black" fill-opacity="0.07"/>
<rect x="87.9174" y="104.439" width="89.8505" height="62.1103" fill="url(#paint9_linear_1_2158)"/>
</g>
<path d="M26.736 104.439L87.918 104.439L76.0995 124.162L14.9175 124.162L26.736 104.439Z" fill="url(#paint10_linear_1_2158)"/>
<mask id="mask1_1_2158" style="mask-type:alpha" maskUnits="userSpaceOnUse" x="87" y="104" width="30" height="63">
<rect x="87.918" y="104.439" width="28.7479" height="62.1103" fill="#C4C4C4"/>
</mask>
<g mask="url(#mask1_1_2158)">
<path d="M113.166 104.336L84.3731 104.336L97.9024 127.043L126.695 127.043L113.166 104.336Z" fill="black" fill-opacity="0.07"/>
</g>
<path d="M116.711 104.439L87.918 104.439L99.7365 124.162L128.529 124.162L116.711 104.439Z" fill="url(#paint11_linear_1_2158)"/>
<circle cx="56.7434" cy="88.6195" r="8.49082" fill="url(#paint12_linear_1_2158)"/>
<circle cx="89.3727" cy="67.6864" r="8.20473" fill="url(#paint13_linear_1_2158)"/>
<circle cx="58.6179" cy="57.1029" r="6.61631" fill="url(#paint14_linear_1_2158)"/>
<circle cx="76.9911" cy="41.9936" r="5.98519" fill="url(#paint15_linear_1_2158)"/>
<circle cx="65.2343" cy="25.3705" r="4.6365" fill="url(#paint16_linear_1_2158)"/>
<circle cx="73.201" cy="66.0365" r="1.65" fill="#FFA800" fill-opacity="0.23"/>
<circle cx="100.642" cy="52.1366" r="1.65" fill="#FFA800" fill-opacity="0.23"/>
<circle cx="102.292" cy="25.3705" r="1.65" fill="#FFA800" fill-opacity="0.23"/>
<circle cx="46.6025" cy="28.357" r="1.65" fill="#FFA800" fill-opacity="0.23"/>
<circle cx="80.2009" cy="92.284" r="1.65" fill="#FFA800" fill-opacity="0.23"/>
<circle cx="38.7964" cy="62.7364" r="1.65" fill="#FFA800" fill-opacity="0.23"/>
<path d="M116.878 104.733H26.7443L12.902 19.3853H133.5L116.878 104.733Z" fill="url(#paint17_linear_1_2158)"/>
<defs>
<linearGradient id="paint0_linear_1_2158" x1="53.7094" y1="38.4735" x2="50.7105" y2="46.1311" gradientUnits="userSpaceOnUse">
<stop stop-color="#FFE89E"/>
<stop offset="1" stop-color="#FFBF1A"/>
</linearGradient>
<linearGradient id="paint1_linear_1_2158" x1="47.9546" y1="24.9311" x2="45.9583" y2="30.0284" gradientUnits="userSpaceOnUse">
<stop stop-color="#FFE89E"/>
<stop offset="1" stop-color="#FFBF1A"/>
</linearGradient>
<linearGradient id="paint2_linear_1_2158" x1="34.4673" y1="9.99325" x2="31.4684" y2="17.6509" gradientUnits="userSpaceOnUse">
<stop stop-color="#FFE89E"/>
<stop offset="1" stop-color="#FFBF1A"/>
</linearGradient>
<linearGradient id="paint3_linear_1_2158" x1="33.0346" y1="40.9151" x2="28.6224" y2="52.1816" gradientUnits="userSpaceOnUse">
<stop stop-color="#FFE89E"/>
<stop offset="1" stop-color="#FFBF1A"/>
</linearGradient>
<linearGradient id="paint4_linear_1_2158" x1="92.2906" y1="38.4735" x2="95.2895" y2="46.1311" gradientUnits="userSpaceOnUse">
<stop stop-color="#FFE89E"/>
<stop offset="1" stop-color="#FFBF1A"/>
</linearGradient>
<linearGradient id="paint5_linear_1_2158" x1="98.0454" y1="24.9311" x2="100.042" y2="30.0284" gradientUnits="userSpaceOnUse">
<stop stop-color="#FFE89E"/>
<stop offset="1" stop-color="#FFBF1A"/>
</linearGradient>
<linearGradient id="paint6_linear_1_2158" x1="111.533" y1="9.99325" x2="114.532" y2="17.6509" gradientUnits="userSpaceOnUse">
<stop stop-color="#FFE89E"/>
<stop offset="1" stop-color="#FFBF1A"/>
</linearGradient>
<linearGradient id="paint7_linear_1_2158" x1="112.965" y1="40.9151" x2="117.378" y2="52.1816" gradientUnits="userSpaceOnUse">
<stop stop-color="#FFE89E"/>
<stop offset="1" stop-color="#FFBF1A"/>
</linearGradient>
<linearGradient id="paint8_linear_1_2158" x1="56.8297" y1="92.9403" x2="21.0194" y2="191.572" gradientUnits="userSpaceOnUse">
<stop stop-color="#FFD481"/>
<stop offset="1" stop-color="#FA620C"/>
</linearGradient>
<linearGradient id="paint9_linear_1_2158" x1="42.1452" y1="100.5" x2="150.825" y2="216.639" gradientUnits="userSpaceOnUse">
<stop stop-color="#FFD481"/>
<stop offset="0.83311" stop-color="#FA620C"/>
</linearGradient>
<linearGradient id="paint10_linear_1_2158" x1="27.9951" y1="97.3904" x2="25.0874" y2="139.413" gradientUnits="userSpaceOnUse">
<stop stop-color="#FFD481"/>
<stop offset="1" stop-color="#FA620C"/>
</linearGradient>
<linearGradient id="paint11_linear_1_2158" x1="121.254" y1="97.3904" x2="126.426" y2="138.971" gradientUnits="userSpaceOnUse">
<stop stop-color="#FFD481"/>
<stop offset="1" stop-color="#FA620C"/>
</linearGradient>
<linearGradient id="paint12_linear_1_2158" x1="57.3863" y1="77.3264" x2="55.7712" y2="100.245" gradientUnits="userSpaceOnUse">
<stop stop-color="#FF9F81"/>
<stop offset="1" stop-color="#F53838"/>
</linearGradient>
<linearGradient id="paint13_linear_1_2158" x1="89.994" y1="56.7739" x2="88.4333" y2="78.9204" gradientUnits="userSpaceOnUse">
<stop stop-color="#FF9F81"/>
<stop offset="1" stop-color="#F53838"/>
</linearGradient>
<linearGradient id="paint14_linear_1_2158" x1="59.1189" y1="48.303" x2="57.8604" y2="66.162" gradientUnits="userSpaceOnUse">
<stop stop-color="#FF9F81"/>
<stop offset="1" stop-color="#F53838"/>
</linearGradient>
<linearGradient id="paint15_linear_1_2158" x1="77.4443" y1="34.0331" x2="76.3058" y2="50.1886" gradientUnits="userSpaceOnUse">
<stop stop-color="#FF9F81"/>
<stop offset="1" stop-color="#F53838"/>
</linearGradient>
<linearGradient id="paint16_linear_1_2158" x1="65.5854" y1="19.2038" x2="64.7034" y2="31.7188" gradientUnits="userSpaceOnUse">
<stop stop-color="#FF9F81"/>
<stop offset="1" stop-color="#F53838"/>
</linearGradient>
<linearGradient id="paint17_linear_1_2158" x1="72.21" y1="19.3853" x2="72.21" y2="200.709" gradientUnits="userSpaceOnUse">
<stop stop-color="white" stop-opacity="0"/>
<stop offset="1" stop-color="#FE9277"/>
</linearGradient>
</defs>
</svg>
