<svg width="16" height="17" viewBox="0 0 16 17" fill="none" xmlns="http://www.w3.org/2000/svg">
<path d="M14.1891 6.41827L10.2219 5.84171L8.44844 2.24639C8.4 2.14796 8.32031 2.06827 8.22187 2.01983C7.975 1.89796 7.675 1.99952 7.55156 2.24639L5.77812 5.84171L1.81094 6.41827C1.70156 6.43389 1.60156 6.48546 1.525 6.56358C1.43244 6.65872 1.38143 6.78671 1.38319 6.91943C1.38495 7.05215 1.43933 7.17874 1.53437 7.27139L4.40469 10.0698L3.72656 14.0214C3.71066 14.1133 3.72083 14.2079 3.75592 14.2943C3.79102 14.3807 3.84963 14.4556 3.92511 14.5104C4.00059 14.5652 4.08992 14.5978 4.18297 14.6044C4.27602 14.6111 4.36907 14.5915 4.45156 14.548L8 12.6823L11.5484 14.548C11.6453 14.5995 11.7578 14.6167 11.8656 14.598C12.1375 14.5511 12.3203 14.2933 12.2734 14.0214L11.5953 10.0698L14.4656 7.27139C14.5437 7.19483 14.5953 7.09483 14.6109 6.98546C14.6531 6.71202 14.4625 6.45889 14.1891 6.41827Z" fill="#FEA250"/>
</svg>
